<svg width="472" height="123" xmlns="http://www.w3.org/2000/svg" xmlns:xlink="http://www.w3.org/1999/xlink">
 <title>server-admin-logo-dark</title>
 <desc>Created using Figma</desc>
 <defs>
  <path id="path0_fill" d="m224.718,63.1218l0,-3.576l-6.292,0l0,24.035l6.487,0l0,-10.9818c0,-5.1783 2.873,-6.7806 6.195,-6.7806c0.656,-0.0007 1.31,0.0648 1.954,0.1954l0,-6.5657c-0.5,-0.058 -1.002,-0.0906 -1.505,-0.0977c-1.383,-0.102 -2.766,0.2001 -3.98,0.8697c-1.214,0.6696 -2.208,1.6777 -2.859,2.9017l0,0zm-78.163,-4.299c-1.605,0.0424 -3.187,0.4051 -4.65,1.067c-1.464,0.6619 -2.78,1.6095 -3.872,2.7873c-1.093,1.1777 -1.938,2.5619 -2.488,4.0711c-0.55,1.5092 -0.793,3.1131 -0.714,4.7174c-0.092,1.6737 0.163,3.3482 0.748,4.9188c0.586,1.5706 1.489,3.0034 2.654,4.2086c1.165,1.2052 2.566,2.1569 4.116,2.7955c1.549,0.6385 3.214,0.9501 4.89,0.9153c2.413,0.1334 4.801,-0.5444 6.784,-1.9255c1.983,-1.3811 3.447,-3.3859 4.159,-5.6953l-5.413,-1.6024c-0.369,1.135 -1.11,2.1126 -2.102,2.7754c-0.993,0.6629 -2.179,0.9724 -3.369,0.8787c-1.523,0.0542 -3.007,-0.4868 -4.138,-1.5081c-1.131,-1.0213 -1.819,-2.4428 -1.92,-3.9632l17.196,0c0,-0.0977 0.098,-1.0748 0.098,-1.9541c-0.039,-7.7576 -4.475,-12.4865 -11.979,-12.4865zm-5.276,10.0048c0.119,-1.3266 0.743,-2.5568 1.743,-3.4368c1,-0.8799 2.3,-1.3424 3.631,-1.292c0.67,-0.0765 1.349,-0.0117 1.992,0.1901c0.644,0.2019 1.238,0.5364 1.744,0.9819c0.506,0.4456 0.914,0.9923 1.196,1.6049c0.282,0.6126 0.432,1.2776 0.442,1.9519l-10.748,0zm311.713,-5.7058l0,-3.576l-6.293,0l0,24.035l6.488,0l0,-10.9818c0,-5.1783 2.872,-6.7806 6.194,-6.7806c0.657,-0.0007 1.311,0.0648 1.954,0.1954l0,-6.5657c-0.499,-0.058 -1.001,-0.0906 -1.504,-0.0977c-1.383,-0.102 -2.766,0.2001 -3.98,0.8697c-1.214,0.6696 -2.208,1.6777 -2.859,2.9017l0,0zm-258.093,-27.7477l0,-15.144c0,-5.276 -2.736,-9.5163 -8.696,-9.5163c-1.369,-0.0424 -2.726,0.2677 -3.941,0.9008c-1.215,0.633 -2.246,1.5677 -2.996,2.7142l0,-2.9897l-6.311,0l0,24.035l6.487,0l0,-13.8739c-0.063,-0.6287 0.007,-1.2636 0.204,-1.8639c0.197,-0.6003 0.518,-1.1527 0.941,-1.6219c0.423,-0.4692 0.94,-0.8447 1.516,-1.1025c0.577,-0.2578 1.202,-0.3922 1.833,-0.3946c0.624,-0.0376 1.247,0.0635 1.827,0.296c0.579,0.2325 1.099,0.5906 1.524,1.0485c0.424,0.4579 0.741,1.0042 0.929,1.5996c0.188,0.5954 0.241,1.225 0.156,1.8434l0,14.0693l6.527,0zm-55.75,-18.0165l-17.293,0l0,5.8622l11.021,0c-0.391,2.4426 -2.873,6.7415 -9.282,6.7415c-5.862,0 -10.943,-4.0449 -10.943,-11.8612c0,-8.20704 5.667,-11.72435 10.884,-11.72435c2.07,-0.10858 4.116,0.48168 5.81,1.67596c1.694,1.19428 2.938,2.92329 3.531,4.90919l6.448,-2.2862c-1.739,-5.33461 -6.761,-10.6692 -15.847,-10.6692c-2.37,-0.0443 -4.724,0.39564 -6.917,1.29288c-2.194,0.89724 -4.181,2.23288 -5.84,3.92511c-1.66,1.69222 -2.956,3.70539 -3.81,5.91621c-0.854,2.2108 -1.248,4.5726 -1.157,6.9409c0,11.1772 7.953,18.0165 17.294,18.0165c1.954,0.1145 3.907,-0.2534 5.686,-1.0712c1.778,-0.8178 3.329,-2.0605 4.514,-3.6186l0.43,3.9081l5.471,0l0,-17.9578zm73.141,42.2078l-6.488,0l0,13.9715c0.042,0.6107 -0.045,1.2233 -0.257,1.7977c-0.211,0.5744 -0.542,1.0975 -0.97,1.5349c-0.429,0.4374 -0.944,0.7793 -1.514,1.0031c-0.57,0.2238 -1.181,0.3245 -1.792,0.2955c-0.621,0.0221 -1.239,-0.0912 -1.812,-0.332c-0.573,-0.2409 -1.086,-0.6036 -1.504,-1.0629c-0.419,-0.4593 -0.732,-1.0042 -0.919,-1.5968c-0.186,-0.5926 -0.241,-1.2187 -0.162,-1.8349l0,-13.8738l-6.526,0l0,15.1831c-0.089,1.2373 0.084,2.4794 0.507,3.6457c0.422,1.1663 1.085,2.2307 1.946,3.1243c0.86,0.8936 1.899,1.5963 3.048,2.0627c1.15,0.4664 2.384,0.6859 3.624,0.6445c1.29,0.0715 2.578,-0.187 3.74,-0.7511c1.163,-0.5642 2.162,-1.4153 2.904,-2.4731c-0.003,0.8635 0.063,1.726 0.195,2.5793l6.195,0c-0.158,-1.4406 -0.236,-2.8888 -0.235,-4.338l0.02,-19.5797zm-37.323,18.7981c-0.862,-0.0016 -1.714,-0.183 -2.502,-0.5327c-0.787,-0.3497 -1.494,-0.86 -2.073,-1.4982c-0.579,-0.6382 -1.019,-1.3903 -1.291,-2.2081c-0.272,-0.8179 -0.371,-1.6836 -0.289,-2.5416c-0.088,-0.8525 0.005,-1.7139 0.272,-2.5284c0.266,-0.8144 0.701,-1.5637 1.276,-2.1994c0.575,-0.6356 1.277,-1.1433 2.06,-1.4902c0.784,-0.3469 1.632,-0.5253 2.489,-0.5236c1.218,-0.0499 2.415,0.3268 3.386,1.0652c0.97,0.7384 1.652,1.7922 1.929,2.9798l5.862,-1.9541c-0.661,-2.4419 -2.142,-4.5817 -4.196,-6.0587c-2.054,-1.4771 -4.554,-2.2013 -7.079,-2.0507c-1.665,-0.0195 -3.317,0.2989 -4.855,0.9361c-1.538,0.6371 -2.931,1.5797 -4.095,2.7707c-1.164,1.191 -2.073,2.6056 -2.675,4.1584c-0.601,1.5527 -0.881,3.2113 -0.822,4.8753c-0.043,1.6764 0.254,3.3441 0.873,4.9026c0.62,1.5585 1.548,2.9756 2.729,4.1659c1.181,1.1904 2.591,2.1293 4.145,2.7604c1.553,0.6311 3.219,0.9412 4.895,0.9116c2.504,0.1048 4.97,-0.6363 7.001,-2.1039c2.031,-1.4675 3.509,-3.576 4.196,-5.9859l-5.706,-1.9541c-0.318,1.2104 -1.04,2.2761 -2.045,3.022c-1.005,0.7458 -2.234,1.1273 -3.485,1.0816l0,0zm37.128,-42.2469c2.412,0.1334 4.801,-0.5445 6.784,-1.9255c1.983,-1.3811 3.447,-3.386 4.158,-5.6953l-5.412,-1.6024c-0.366,1.1386 -1.105,2.1206 -2.098,2.7872c-0.993,0.6666 -2.182,0.9789 -3.374,0.8865c-1.523,0.0541 -3.007,-0.4868 -4.137,-1.5082c-1.131,-1.0213 -1.82,-2.4428 -1.92,-3.9632l17.195,0c0,-0.0977 0,-1.0748 0,-1.9541c0,-7.7185 -4.435,-12.4474 -11.861,-12.4474c-1.606,0.0424 -3.187,0.4051 -4.65,1.067c-1.464,0.6619 -2.78,1.6095 -3.872,2.7873c-1.093,1.1777 -1.939,2.5619 -2.488,4.0711c-0.55,1.5092 -0.793,3.1131 -0.714,4.7174c-0.084,1.6672 0.177,3.3337 0.765,4.896c0.588,1.5623 1.491,2.9869 2.653,4.1855c1.161,1.1985 2.557,2.1453 4.101,2.7815c1.543,0.6362 3.201,0.9482 4.87,0.9166zm-0.489,-20.2246c0.664,-0.0649 1.334,0.0086 1.968,0.2157c0.634,0.2072 1.219,0.5436 1.716,0.9879c0.498,0.4444 0.898,0.9871 1.175,1.5938c0.278,0.6068 0.426,1.2644 0.437,1.9315l-10.748,0c0.12,-1.3408 0.755,-2.5828 1.772,-3.4648c1.016,-0.882 2.336,-1.3352 3.68,-1.2641l0,0zm18.466,12.4083c-0.073,1.0109 0.075,2.0255 0.435,2.973c0.36,0.9474 0.923,1.8047 1.649,2.512c0.725,0.7073 1.597,1.2474 2.554,1.5826c0.956,0.3352 1.974,0.4573 2.983,0.3579c1.244,0.0426 2.485,-0.1565 3.654,-0.5862l0,-5.3737c-0.643,0.1328 -1.298,0.1983 -1.954,0.1954c-1.954,0 -2.834,-0.6839 -2.834,-2.7748l0,-10.0829l4.827,0l0,-5.7645l-4.944,0l0,-7.17144l-5.862,0l0,3.36099c0.053,0.50503 -0.005,1.01558 -0.172,1.49539c-0.166,0.47982 -0.436,0.91711 -0.79,1.28086c-0.355,0.3637 -0.785,0.6449 -1.26,0.8237c-0.476,0.1787 -0.985,0.2506 -1.491,0.2105l-1.211,0l0,5.7645l4.338,0l0.078,11.1967zm-108.158,35.1732l-4.846,-0.9379c-2.54,-0.4886 -3.751,-1.9541 -3.751,-3.9082c0.063,-0.6454 0.254,-1.2718 0.561,-1.8431c0.307,-0.5712 0.724,-1.0758 1.227,-1.4847c0.504,-0.4089 1.083,-0.7139 1.705,-0.8974c0.622,-0.1834 1.275,-0.2417 1.919,-0.1714c1.469,-0.1401 2.937,0.279 4.111,1.1737c1.173,0.8947 1.966,2.1991 2.22,3.6528l6.058,-1.8563c-0.782,-3.9082 -3.908,-8.9887 -12.408,-8.9887c-6.546,0 -12.057,4.6897 -12.057,10.845c0,5.2174 3.576,8.7933 9.087,9.9071l4.826,0.9771c2.677,0.5471 4.201,2.0908 4.201,4.1035c0,2.4426 -1.954,4.2403 -5.608,4.2403c-0.925,0.0827 -1.857,-0.0205 -2.741,-0.3037c-0.885,-0.2833 -1.703,-0.7407 -2.408,-1.3453c-0.705,-0.6046 -1.281,-1.3442 -1.696,-2.1752c-0.414,-0.831 -0.658,-1.7366 -0.717,-2.6633l-6.253,1.661c0.528,4.9242 4.592,10.845 13.678,10.845c8.051,0 12.506,-5.3737 12.506,-10.6887c0.059,-4.8852 -3.321,-8.9887 -9.614,-10.2002l0,0.0586zm344.17,11.5681c-0.881,0.0077 -1.739,0.276 -2.467,0.7711c-0.728,0.4951 -1.293,1.1948 -1.623,2.0106c-0.331,0.8159 -0.412,1.7115 -0.235,2.5736c0.178,0.8622 0.608,1.6523 1.234,2.2707c0.627,0.6184 1.423,1.0373 2.287,1.2039c0.864,0.1665 1.759,0.0732 2.57,-0.2681c0.812,-0.3413 1.504,-0.9154 1.989,-1.6497c0.486,-0.7344 0.743,-1.5961 0.739,-2.4764c-0.002,-0.5867 -0.121,-1.1672 -0.348,-1.708c-0.228,-0.5409 -0.56,-1.0315 -0.978,-1.4436c-0.417,-0.4122 -0.912,-0.7378 -1.456,-0.9581c-0.544,-0.2204 -1.126,-0.3312 -1.712,-0.326l0,0zm-309.544,-38.925c2.413,0.1334 4.801,-0.5445 6.785,-1.9255c1.983,-1.3811 3.447,-3.386 4.158,-5.6953l-5.413,-1.6024c-0.365,1.1386 -1.104,2.1206 -2.097,2.7872c-0.993,0.6666 -2.182,0.9789 -3.374,0.8865c-1.523,0.0541 -3.007,-0.4868 -4.137,-1.5082c-1.131,-1.0213 -1.82,-2.4428 -1.921,-3.9632l17.196,0c0,-0.0977 0.098,-1.0748 0.098,-1.9541c0,-7.7185 -4.436,-12.4474 -11.861,-12.4474c-1.606,0.0424 -3.187,0.4051 -4.651,1.067c-1.463,0.6619 -2.78,1.6095 -3.872,2.7873c-1.092,1.1777 -1.938,2.5619 -2.488,4.0711c-0.55,1.5092 -0.792,3.1131 -0.714,4.7174c-0.082,1.6589 0.175,3.3171 0.757,4.8727c0.582,1.5555 1.477,2.9756 2.628,4.1727c1.151,1.1971 2.535,2.1459 4.067,2.7881c1.532,0.6422 3.179,0.9642 4.839,0.9461zm-0.488,-20.2246c0.67,-0.0765 1.349,-0.0117 1.992,0.1902c0.644,0.2018 1.238,0.5363 1.744,0.9819c0.506,0.4455 0.914,0.9922 1.196,1.6049c0.282,0.6126 0.432,1.2775 0.442,1.9519l-10.748,0c0.12,-1.3267 0.743,-2.5569 1.743,-3.4368c1,-0.88 2.3,-1.3425 3.631,-1.2921zm103.135,36.4824l-5.862,0l0,3.361c0.053,0.505 -0.005,1.0156 -0.172,1.4954c-0.166,0.4798 -0.436,0.9171 -0.79,1.2808c-0.355,0.3638 -0.785,0.645 -1.26,0.8237c-0.475,0.1788 -0.984,0.2506 -1.49,0.2105l-1.212,0l0,5.7645l4.338,0l0,11.1773c-0.073,1.0108 0.075,2.0254 0.435,2.9729c0.36,0.9474 0.923,1.8048 1.649,2.512c0.726,0.7073 1.597,1.2474 2.554,1.5826c0.956,0.3352 1.974,0.4574 2.983,0.3579c1.244,0.0426 2.485,-0.1565 3.654,-0.5862l0,-5.3541c-0.643,0.1327 -1.298,0.1982 -1.954,0.1954c-1.954,0 -2.833,-0.684 -2.833,-2.7748l0,-10.083l4.826,0l0,-5.7645l-4.826,0l-0.04,-7.1714zm25.892,-22.2177c-0.855,-0.0025 -1.7,-0.1819 -2.482,-0.5268c-0.782,-0.345 -1.484,-0.8481 -2.062,-1.4776c-0.579,-0.6296 -1.02,-1.372 -1.297,-2.1805c-0.278,-0.8085 -0.385,-1.6657 -0.315,-2.5175c-0.087,-0.8542 0.006,-1.7172 0.274,-2.533c0.267,-0.8158 0.704,-1.5661 1.281,-2.2021c0.577,-0.6359 1.281,-1.1432 2.067,-1.4889c0.786,-0.3457 1.636,-0.5221 2.495,-0.5176c1.218,-0.0499 2.415,0.3268 3.386,1.0652c0.97,0.7384 1.652,1.7922 1.929,2.9798l5.862,-1.9541c-0.661,-2.4419 -2.142,-4.5817 -4.196,-6.0587c-2.054,-1.4771 -4.554,-2.2013 -7.079,-2.0507c-1.673,-0.0303 -3.335,0.2808 -4.884,0.9143c-1.549,0.6336 -2.952,1.5763 -4.124,2.7705c-1.173,1.1942 -2.089,2.6149 -2.694,4.1753c-0.605,1.5604 -0.885,3.2276 -0.824,4.9c-0.042,1.6764 0.255,3.3441 0.874,4.9025c0.619,1.5585 1.548,2.9756 2.729,4.166c1.181,1.1903 2.591,2.1293 4.145,2.7604c1.553,0.631 3.219,0.9411 4.895,0.9116c2.513,0.1126 4.99,-0.6271 7.03,-2.0992c2.039,-1.472 3.521,-3.5899 4.206,-6.0102l-5.706,-1.9541c-0.333,1.1925 -1.057,2.2381 -2.057,2.9684c-1,0.7302 -2.216,1.1026 -3.453,1.057l0,0zm-4.455,43.4779l-6.39,-14.0692l-7.269,0l10.2,21.0062l-5.667,12.506l6.878,0l15.086,-33.5122l-6.937,0l-5.901,14.0692zm45.041,4.1036c-1.474,0.0116 -2.933,-0.2815 -4.288,-0.8609c-1.355,-0.5794 -2.575,-1.4326 -3.584,-2.506c-1.009,-1.0734 -1.786,-2.3439 -2.281,-3.7317c-0.494,-1.3878 -0.697,-2.8629 -0.595,-4.3327c0,-7.8163 5.472,-11.5681 10.65,-11.5681c2.158,-0.1682 4.306,0.4432 6.052,1.7233c1.746,1.28 2.975,3.1437 3.464,5.2527l6.351,-1.954c-1.368,-5.6082 -6.292,-11.4704 -15.867,-11.4704c-2.351,-0.0009 -4.679,0.4697 -6.845,1.3839c-2.166,0.9142 -4.127,2.2535 -5.767,3.9386c-1.639,1.6852 -2.924,3.682 -3.779,5.8724c-0.854,2.1904 -1.261,4.5299 -1.196,6.8802c-0.099,2.3678 0.288,4.7308 1.14,6.9424c0.851,2.2116 2.148,4.2246 3.81,5.914c1.662,1.6894 3.654,3.0192 5.851,3.9069c2.197,0.8876 4.554,1.3142 6.923,1.2532c3.611,0.1817 7.174,-0.8844 10.092,-3.0193c2.917,-2.1349 5.012,-5.2086 5.931,-8.7051l-6.292,-1.9541c-0.591,2.1043 -1.88,3.9449 -3.656,5.2197c-1.775,1.2748 -3.931,1.9079 -6.114,1.7954l0,0.0196zm60.576,-18.7981c-1.368,-0.0445 -2.724,0.2627 -3.938,0.8922c-1.215,0.6296 -2.247,1.5603 -2.999,2.7033l0,-2.9898l-6.292,0l0,24.035l6.487,0l0,-13.8152c-0.062,-0.6287 0.007,-1.2636 0.204,-1.8639c0.197,-0.6003 0.518,-1.1527 0.941,-1.6219c0.423,-0.4692 0.94,-0.8447 1.516,-1.1026c0.577,-0.2578 1.202,-0.3921 1.833,-0.3945c0.625,-0.0406 1.251,0.0582 1.833,0.2894c0.582,0.2311 1.105,0.5888 1.531,1.0471c0.427,0.4583 0.746,1.0057 0.935,1.6025c0.188,0.5969 0.242,1.2283 0.157,1.8485l0,14.0106l6.487,0l0,-15.1831c0,-5.2368 -2.735,-9.4772 -8.695,-9.4772l0,0.0196zm-30.249,-0.0977c-1.606,0.0423 -3.187,0.4051 -4.651,1.0669c-1.463,0.6619 -2.78,1.6095 -3.872,2.7873c-1.092,1.1778 -1.938,2.5619 -2.488,4.0711c-0.55,1.5093 -0.792,3.1131 -0.714,4.7175c-0.091,1.6736 0.163,3.3482 0.749,4.9188c0.585,1.5706 1.489,3.0033 2.653,4.2086c1.165,1.2052 2.566,2.1569 4.116,2.7954c1.55,0.6385 3.215,0.9502 4.891,0.9154c2.413,0.1333 4.801,-0.5445 6.784,-1.9256c1.983,-1.381 3.447,-3.3859 4.158,-5.6953l-5.412,-1.6023c-0.37,1.1349 -1.11,2.1125 -2.103,2.7754c-0.992,0.6628 -2.179,0.9724 -3.369,0.8787c-1.522,0.0541 -3.006,-0.4868 -4.137,-1.5082c-1.131,-1.0213 -1.82,-2.4428 -1.92,-3.9632l17.195,0c0,-0.0977 0,-1.0747 0,-1.9541c0,-7.7771 -4.416,-12.506 -11.861,-12.506l-0.019,0.0196zm-5.276,10.0048c0.119,-1.3267 0.743,-2.5569 1.743,-3.4368c1,-0.88 2.299,-1.3425 3.63,-1.2921c0.672,-0.0822 1.353,-0.0224 2,0.1756c0.647,0.198 1.245,0.5298 1.755,0.9739c0.511,0.444 0.922,0.9904 1.208,1.6037c0.285,0.6133 0.439,1.2797 0.45,1.9561l-10.786,0.0196zm-113.004,14.7532l6.546,0l0,-24.0546l-6.487,0l-0.059,24.0546zm25.11,-56.6679c-0.366,1.1386 -1.105,2.1205 -2.098,2.7872c-0.992,0.6666 -2.181,0.9789 -3.373,0.8864c-1.523,0.0542 -3.007,-0.4868 -4.138,-1.5081c-1.131,-1.0213 -1.819,-2.4428 -1.92,-3.9632l17.196,0c0,-0.0977 0,-1.0748 0,-1.9541c0,-7.7186 -4.436,-12.4474 -11.861,-12.4474c-1.606,0.0423 -3.187,0.4051 -4.651,1.067c-1.463,0.6618 -2.78,1.6095 -3.872,2.7873c-1.092,1.1777 -1.938,2.5619 -2.488,4.0711c-0.55,1.5092 -0.792,3.1131 -0.714,4.7174c-0.092,1.6736 0.163,3.3482 0.749,4.9188c0.585,1.5706 1.488,3.0034 2.653,4.2086c1.165,1.2052 2.566,2.1569 4.116,2.7954c1.55,0.6386 3.215,0.9502 4.891,0.9154c2.412,0.1334 4.801,-0.5445 6.784,-1.9255c1.983,-1.3811 3.447,-3.3859 4.158,-5.6953l-5.432,-1.661zm-5.999,-10.9818c0.67,-0.0766 1.349,-0.0118 1.992,0.1901c0.644,0.2018 1.238,0.5363 1.744,0.9819c0.506,0.4455 0.914,0.9922 1.196,1.6049c0.282,0.6126 0.432,1.2775 0.442,1.9519l-10.748,0c0.105,-1.3407 0.726,-2.5884 1.732,-3.4812c1.005,-0.8927 2.318,-1.3609 3.662,-1.3063l-0.02,0.0587zm172.837,42.9894c-1.606,0.0423 -3.187,0.4051 -4.65,1.0669c-1.464,0.6619 -2.78,1.6095 -3.873,2.7873c-1.092,1.1778 -1.938,2.5619 -2.488,4.0711c-0.549,1.5093 -0.792,3.1131 -0.713,4.7175c-0.092,1.6736 0.163,3.3482 0.748,4.9188c0.585,1.5706 1.489,3.0033 2.654,4.2086c1.164,1.2052 2.566,2.1569 4.115,2.7954c1.55,0.6385 3.215,0.9502 4.891,0.9154c2.413,0.1333 4.801,-0.5445 6.784,-1.9256c1.983,-1.381 3.447,-3.3859 4.159,-5.6953l-5.53,-1.7196c-0.37,1.135 -1.11,2.1126 -2.103,2.7754c-0.992,0.6629 -2.179,0.9724 -3.369,0.8787c-1.522,0.0542 -3.006,-0.4868 -4.137,-1.5081c-1.131,-1.0213 -1.82,-2.4428 -1.92,-3.9632l17.195,0c0,-0.0977 0,-1.0748 0,-1.9541c0.196,-7.7576 -4.318,-12.4865 -11.743,-12.4865l-0.02,0.1173zm-5.276,10.0048c0.119,-1.3267 0.743,-2.5569 1.743,-3.4368c1,-0.88 2.3,-1.3425 3.631,-1.2921c0.67,-0.0765 1.348,-0.0117 1.992,0.1902c0.643,0.2018 1.238,0.5363 1.744,0.9819c0.506,0.4455 0.913,0.9922 1.195,1.6049c0.283,0.6126 0.433,1.2775 0.442,1.9519l-10.747,0zm-14.851,-16.4532l-5.862,0l0,3.361c0.053,0.505 -0.005,1.0155 -0.172,1.4954c-0.166,0.4798 -0.436,0.9171 -0.79,1.2808c-0.355,0.3637 -0.785,0.6449 -1.26,0.8237c-0.476,0.1787 -0.985,0.2506 -1.491,0.2105l-1.211,0l0,5.7645l4.338,0l0,11.1772c-0.074,1.0109 0.075,2.0255 0.435,2.9729c0.36,0.9475 0.922,1.8048 1.648,2.5121c0.726,0.7073 1.598,1.2474 2.554,1.5826c0.957,0.3352 1.975,0.4573 2.984,0.3579c1.244,0.0425 2.485,-0.1565 3.654,-0.5863l0,-5.4713c-0.643,0.1327 -1.298,0.1982 -1.954,0.1954c-1.954,0 -2.834,-0.684 -2.834,-2.7748l0,-10.083l4.827,0l0,-5.7645l-4.827,0l-0.039,-7.0541zm-168.596,-4.7289c-1.063,0 -2.082,0.4221 -2.833,1.1733c-0.751,0.7512 -1.173,1.7701 -1.173,2.8326c0,1.0624 0.422,2.0813 1.173,2.8325c0.751,0.7512 1.77,1.1733 2.833,1.1733c1.062,0 2.081,-0.4221 2.832,-1.1733c0.751,-0.7512 1.173,-1.7701 1.173,-2.8325c0,-1.0625 -0.422,-2.0814 -1.173,-2.8326c-0.751,-0.7512 -1.77,-1.1733 -2.832,-1.1733zm-163.1844,-33.9421l0.4104,0l0,-3.2242l1.1919,0l0,-0.4689l-2.7943,0l0,0.4689l1.192,0l0,3.2242zm-17.8992,-5.29548l-11.9589,-6.91739c-1.8203,-1.05324 -3.8862,-1.60783 -5.9892,-1.60783c-2.1031,0 -4.1689,0.55459 -5.9892,1.60783l-29.93627,17.27397c-1.82813,1.0577 -3.34409,2.58 -4.39419,4.4125c-1.0501,1.8325 -1.59699,3.9101 -1.58524,6.0222l0,0l0,34.4892c-0.01722,2.1157 0.52718,4.1982 1.57765,6.0348c1.05047,1.8366 2.5694,3.3616 4.40178,4.4194l11.97837,6.9174l0,-41.5629c0.0103,-2.0893 0.5678,-4.1394 1.6169,-5.9461c1.0491,-1.8068 2.5532,-3.3072 4.3626,-4.3518l35.9157,-20.79128zm0,6.91738l-29.9167,17.2739c-1.8102,1.0405 -3.3164,2.5368 -4.3689,4.34c-1.0524,1.8032 -1.6144,3.8506 -1.6301,5.9384l0,31.265c-0.0115,0.3541 0.0736,0.7047 0.246,1.0142c0.1724,0.3095 0.4257,0.5662 0.7328,0.7429c0.3071,0.1766 0.6564,0.2664 1.0106,0.2598c0.3542,-0.0066 0.7,-0.1093 1.0003,-0.2973l11.9589,-6.9174c0.9089,-0.5248 1.6638,-1.2796 2.1886,-2.1886c0.5248,-0.9089 0.8011,-1.94 0.8011,-2.9896l0,-10.3566c-0.0272,-2.1328 0.5164,-4.234 1.5747,-6.0859c1.0582,-1.852 2.5925,-3.3872 4.4438,-4.4465l35.8962,-20.6544l-11.9785,-6.9174c-1.8196,-1.0467 -3.8828,-1.5959 -5.982,-1.5925c-2.0992,0.0035 -4.1606,0.5594 -5.9768,1.612l0,0zm22.5108,15.3589c-0.2627,-0.0805 -0.5395,-0.1047 -0.8122,-0.0711c-0.2728,0.0337 -0.5353,0.1245 -0.7706,0.2666l-11.9589,6.8978c-0.8976,0.5181 -1.6451,1.2606 -2.1692,2.1547c-0.5241,0.8941 -0.8069,1.9091 -0.8205,2.9454l0,10.3565c0.0034,2.1026 -0.5475,4.1688 -1.5973,5.9905c-1.0498,1.8217 -2.5613,3.3344 -4.3821,4.3856l-35.9157,20.8108l11.9784,6.9174c1.8203,1.0532 3.8861,1.6078 5.9892,1.6078c2.103,0 4.1689,-0.5546 5.9892,-1.6078l29.9167,-17.1958c1.818,-1.0496 3.3276,-2.5592 4.3772,-4.3772c1.0496,-1.8179 1.6022,-3.8801 1.6023,-5.9793l0,-31.1869c0.0073,-0.432 -0.1286,-0.8542 -0.3867,-1.2007c-0.2581,-0.3465 -0.6238,-0.5977 -1.0398,-0.7143l0,0zm-0.4885,-17.8796l-1.1725,-2.7943l-0.7425,0l0,3.6931l0.5081,0l0,-3.0288l1.2506,3.0484l0.3517,0l1.2506,-3.0484l0,3.0288l0.508,0l0,-3.6931l-0.7816,0l-1.1724,2.7943zm220.8093,-5.95993l-1.173,-2.79431l-0.742,0l0,3.6541l0.508,0l0,-3.00926l1.172,3.00926l0.43,0l1.251,-3.04834l0,3.04834l0.508,0l0,-3.6541l-0.743,0l-1.211,2.79431zm-5.315,-2.32534l1.192,0l0,3.18513l0.41,0l0,-3.18513l1.192,0l0,-0.46897l-2.892,0l0.098,0.46897z"/>
  <path id="path1_fill" d="m197.696,13.748c-0.056,-0.2987 -0.168,-0.6253 -0.336,-0.98c-0.15,-0.3733 -0.383,-0.7093 -0.7,-1.008c-0.299,-0.2987 -0.682,-0.5507 -1.148,-0.756c-0.467,-0.2053 -1.036,-0.308 -1.708,-0.308c-0.504,0 -0.971,0.084 -1.4,0.252c-0.411,0.1493 -0.766,0.3547 -1.064,0.616c-0.299,0.2613 -0.532,0.5693 -0.7,0.924c-0.168,0.336 -0.252,0.6907 -0.252,1.064c0,0.6347 0.186,1.176 0.56,1.624c0.392,0.448 0.98,0.756 1.764,0.924l2.856,0.588c1.754,0.3547 3.089,1.0453 4.004,2.072c0.914,1.0267 1.372,2.24 1.372,3.64c0,0.7653 -0.159,1.512 -0.476,2.24c-0.299,0.728 -0.747,1.372 -1.344,1.932c-0.598,0.56 -1.335,1.008 -2.212,1.344c-0.859,0.336 -1.858,0.504 -2.996,0.504c-1.27,0 -2.371,-0.1773 -3.304,-0.532c-0.915,-0.3733 -1.69,-0.8493 -2.324,-1.428c-0.616,-0.5973 -1.092,-1.26 -1.428,-1.988c-0.336,-0.728 -0.542,-1.4467 -0.616,-2.156l3.136,-0.896c0.056,0.5227 0.186,1.0267 0.392,1.512c0.205,0.4667 0.494,0.8867 0.868,1.26c0.392,0.3547 0.858,0.644 1.4,0.868c0.541,0.224 1.166,0.336 1.876,0.336c1.194,0 2.09,-0.2613 2.688,-0.784c0.616,-0.5227 0.924,-1.176 0.924,-1.96c0,-0.6533 -0.234,-1.2133 -0.7,-1.68c-0.448,-0.4853 -1.102,-0.8213 -1.96,-1.008l-2.8,-0.588c-1.512,-0.3173 -2.735,-0.952 -3.668,-1.904c-0.915,-0.952 -1.372,-2.1747 -1.372,-3.668c0,-0.84 0.177,-1.624 0.532,-2.352c0.354,-0.7467 0.84,-1.3907 1.456,-1.932c0.616,-0.56 1.325,-0.99867 2.128,-1.316c0.821,-0.31733 1.698,-0.476 2.632,-0.476c1.176,0 2.174,0.15867 2.996,0.476c0.821,0.31733 1.502,0.728 2.044,1.232c0.56,0.48533 0.989,1.0267 1.288,1.624c0.298,0.5973 0.504,1.176 0.616,1.736l-3.024,0.952zm15.226,5.936c-0.019,-0.392 -0.103,-0.7653 -0.252,-1.12c-0.131,-0.3733 -0.336,-0.7 -0.616,-0.98c-0.28,-0.28 -0.625,-0.504 -1.036,-0.672c-0.411,-0.168 -0.896,-0.252 -1.456,-0.252c-0.504,0 -0.961,0.0933 -1.372,0.28c-0.392,0.168 -0.728,0.4013 -1.008,0.7c-0.28,0.28 -0.504,0.6067 -0.672,0.98c-0.168,0.3547 -0.261,0.7093 -0.28,1.064l6.692,0zm3.108,4.424c-0.187,0.5973 -0.457,1.1573 -0.812,1.68c-0.355,0.5227 -0.793,0.98 -1.316,1.372c-0.523,0.392 -1.12,0.7 -1.792,0.924c-0.672,0.224 -1.419,0.336 -2.24,0.336c-0.933,0 -1.82,-0.1587 -2.66,-0.476c-0.84,-0.336 -1.577,-0.812 -2.212,-1.428c-0.635,-0.6347 -1.148,-1.4 -1.54,-2.296c-0.373,-0.9147 -0.56,-1.9507 -0.56,-3.108c0,-1.0827 0.177,-2.0627 0.532,-2.94c0.373,-0.8773 0.868,-1.624 1.484,-2.24c0.616,-0.6347 1.325,-1.12 2.128,-1.456c0.803,-0.3547 1.633,-0.532 2.492,-0.532c1.045,0 1.979,0.168 2.8,0.504c0.84,0.336 1.54,0.812 2.1,1.428c0.579,0.616 1.017,1.3627 1.316,2.24c0.299,0.8587 0.448,1.8293 0.448,2.912c0,0.2613 -0.009,0.4947 -0.028,0.7c-0.019,0.1867 -0.037,0.2987 -0.056,0.336l-9.968,0c0.019,0.5227 0.131,0.9987 0.336,1.428c0.205,0.4293 0.476,0.8027 0.812,1.12c0.336,0.3173 0.719,0.5693 1.148,0.756c0.448,0.168 0.924,0.252 1.428,0.252c0.989,0 1.745,-0.224 2.268,-0.672c0.541,-0.4667 0.924,-1.036 1.148,-1.708l2.744,0.868zm11.252,-6.524c-0.374,-0.056 -0.728,-0.084 -1.064,-0.084c-1.27,0 -2.203,0.3453 -2.8,1.036c-0.579,0.6907 -0.868,1.68 -0.868,2.968l0,6.496l-3.248,0l0,-13.636l3.164,0l0,2.184c0.317,-0.7467 0.83,-1.3253 1.54,-1.736c0.709,-0.4107 1.512,-0.616 2.408,-0.616c0.205,0 0.382,0.0093 0.532,0.028c0.149,0.0187 0.261,0.0373 0.336,0.056l0,3.304zm10.093,10.416l-3.248,0l-5.544,-13.636l3.584,0l3.612,9.744l3.528,-9.744l3.416,0l-5.348,13.636zm16.289,-8.316c-0.019,-0.392 -0.103,-0.7653 -0.252,-1.12c-0.131,-0.3733 -0.336,-0.7 -0.616,-0.98c-0.28,-0.28 -0.625,-0.504 -1.036,-0.672c-0.411,-0.168 -0.896,-0.252 -1.456,-0.252c-0.504,0 -0.961,0.0933 -1.372,0.28c-0.392,0.168 -0.728,0.4013 -1.008,0.7c-0.28,0.28 -0.504,0.6067 -0.672,0.98c-0.168,0.3547 -0.261,0.7093 -0.28,1.064l6.692,0zm3.108,4.424c-0.187,0.5973 -0.457,1.1573 -0.812,1.68c-0.355,0.5227 -0.793,0.98 -1.316,1.372c-0.523,0.392 -1.12,0.7 -1.792,0.924c-0.672,0.224 -1.419,0.336 -2.24,0.336c-0.933,0 -1.82,-0.1587 -2.66,-0.476c-0.84,-0.336 -1.577,-0.812 -2.212,-1.428c-0.635,-0.6347 -1.148,-1.4 -1.54,-2.296c-0.373,-0.9147 -0.56,-1.9507 -0.56,-3.108c0,-1.0827 0.177,-2.0627 0.532,-2.94c0.373,-0.8773 0.868,-1.624 1.484,-2.24c0.616,-0.6347 1.325,-1.12 2.128,-1.456c0.803,-0.3547 1.633,-0.532 2.492,-0.532c1.045,0 1.979,0.168 2.8,0.504c0.84,0.336 1.54,0.812 2.1,1.428c0.579,0.616 1.017,1.3627 1.316,2.24c0.299,0.8587 0.448,1.8293 0.448,2.912c0,0.2613 -0.009,0.4947 -0.028,0.7c-0.019,0.1867 -0.037,0.2987 -0.056,0.336l-9.968,0c0.019,0.5227 0.131,0.9987 0.336,1.428c0.205,0.4293 0.476,0.8027 0.812,1.12c0.336,0.3173 0.719,0.5693 1.148,0.756c0.448,0.168 0.924,0.252 1.428,0.252c0.989,0 1.745,-0.224 2.268,-0.672c0.541,-0.4667 0.924,-1.036 1.148,-1.708l2.744,0.868zm11.252,-6.524c-0.373,-0.056 -0.728,-0.084 -1.064,-0.084c-1.269,0 -2.203,0.3453 -2.8,1.036c-0.579,0.6907 -0.868,1.68 -0.868,2.968l0,6.496l-3.248,0l0,-13.636l3.164,0l0,2.184c0.317,-0.7467 0.831,-1.3253 1.54,-1.736c0.709,-0.4107 1.512,-0.616 2.408,-0.616c0.205,0 0.383,0.0093 0.532,0.028c0.149,0.0187 0.261,0.0373 0.336,0.056l0,3.304zm21.586,5.432l-8.4,0l-1.848,4.984l-3.556,0l7.728,-19.852l3.892,0l7.728,19.852l-3.668,0l-1.876,-4.984zm-7.224,-3.108l6.048,0l-3.024,-8.12l-3.024,8.12zm17.057,1.232c0,1.3067 0.326,2.3613 0.98,3.164c0.672,0.784 1.568,1.176 2.688,1.176c0.522,0 1.008,-0.1027 1.456,-0.308c0.448,-0.224 0.83,-0.5227 1.148,-0.896c0.317,-0.392 0.56,-0.8493 0.728,-1.372c0.186,-0.5413 0.28,-1.1387 0.28,-1.792c0,-1.3067 -0.336,-2.3333 -1.008,-3.08c-0.654,-0.7653 -1.512,-1.148 -2.576,-1.148c-1.064,0 -1.951,0.3827 -2.66,1.148c-0.691,0.7653 -1.036,1.8013 -1.036,3.108zm10.416,4.368c0,0.616 0.018,1.1573 0.056,1.624c0.037,0.4667 0.065,0.756 0.084,0.868l-3.108,0c-0.038,-0.1493 -0.075,-0.4107 -0.112,-0.784c-0.019,-0.3733 -0.028,-0.7 -0.028,-0.98c-0.318,0.5787 -0.822,1.0733 -1.512,1.484c-0.691,0.4107 -1.522,0.616 -2.492,0.616c-0.99,0 -1.886,-0.1773 -2.688,-0.532c-0.803,-0.3733 -1.494,-0.8773 -2.072,-1.512c-0.56,-0.6533 -0.999,-1.4187 -1.316,-2.296c-0.318,-0.8773 -0.476,-1.8293 -0.476,-2.856c0,-0.9707 0.158,-1.8853 0.476,-2.744c0.317,-0.8773 0.756,-1.6427 1.316,-2.296c0.578,-0.6533 1.269,-1.1667 2.072,-1.54c0.802,-0.3733 1.68,-0.56 2.632,-0.56c0.597,0 1.12,0.0653 1.568,0.196c0.448,0.112 0.83,0.2707 1.148,0.476c0.336,0.1867 0.606,0.392 0.812,0.616c0.205,0.224 0.364,0.448 0.476,0.672l0,-8.232l3.164,0l0,17.78zm4.243,2.492l0,-13.636l3.108,0l0,1.736c0.392,-0.6907 0.971,-1.2133 1.736,-1.568c0.766,-0.3733 1.531,-0.56 2.296,-0.56c0.896,0 1.708,0.2053 2.436,0.616c0.728,0.392 1.279,0.9893 1.652,1.792c0.542,-0.896 1.186,-1.5213 1.932,-1.876c0.766,-0.3547 1.596,-0.532 2.492,-0.532c0.616,0 1.214,0.1027 1.792,0.308c0.579,0.2053 1.092,0.5227 1.54,0.952c0.448,0.4107 0.803,0.9427 1.064,1.596c0.28,0.6533 0.42,1.428 0.42,2.324l0,8.848l-3.136,0l0,-8.316c0,-0.8027 -0.214,-1.4653 -0.644,-1.988c-0.41,-0.5413 -1.073,-0.812 -1.988,-0.812c-0.858,0 -1.549,0.2987 -2.072,0.896c-0.504,0.5787 -0.756,1.288 -0.756,2.128l0,8.092l-3.192,0l0,-8.316c0,-0.784 -0.205,-1.4467 -0.616,-1.988c-0.41,-0.5413 -1.082,-0.812 -2.016,-0.812c-0.877,0 -1.568,0.2893 -2.072,0.868c-0.504,0.56 -0.756,1.2787 -0.756,2.156l0,8.092l-3.22,0zm24.446,0l0,-13.636l3.22,0l0,13.636l-3.22,0zm-0.504,-18.424c0,-0.59733 0.205,-1.10133 0.616,-1.512c0.41,-0.41067 0.905,-0.616 1.484,-0.616c0.597,0 1.101,0.20533 1.512,0.616c0.41,0.41067 0.616,0.91467 0.616,1.512c0,0.5973 -0.206,1.1013 -0.616,1.512c-0.411,0.392 -0.915,0.588 -1.512,0.588c-0.579,0 -1.074,-0.196 -1.484,-0.588c-0.411,-0.4107 -0.616,-0.9147 -0.616,-1.512zm11.162,18.424l-3.248,0l0,-13.636l3.164,0l0,1.82c0.448,-0.784 1.036,-1.344 1.764,-1.68c0.747,-0.3547 1.503,-0.532 2.268,-0.532c0.84,0 1.568,0.14 2.184,0.42c0.616,0.28 1.12,0.672 1.512,1.176c0.411,0.4853 0.719,1.0547 0.924,1.708c0.205,0.6533 0.308,1.3533 0.308,2.1l0,8.624l-3.248,0l0,-8.064c0,-0.84 -0.215,-1.5493 -0.644,-2.128c-0.411,-0.5973 -1.129,-0.896 -2.156,-0.896c-0.933,0 -1.643,0.3173 -2.128,0.952c-0.467,0.616 -0.7,1.372 -0.7,2.268l0,7.868z"/>
 </defs>
 <g>
  <title>background</title>
  <rect x="-1" y="-1" width="474" height="125" id="canvas_background" fill="none"/>
 </g>
 <g>
  <title>Layer 1</title>
  <g id="Canvas">
   <g id="server-admin-logo-dark">
    <g id="Vector">
     <use xlink:href="#path0_fill" fill="#FFFFFF" y="0.4032" x="0.71096" id="svg_1"/>
    </g>
   </g>
  </g>
  <text fill="#000000" stroke-width="0" x="470.5" y="114.5" id="svg_3" font-size="24" font-family="Helvetica, Arial, sans-serif" text-anchor="start" xml:space="preserve" transform="matrix(13.88992977142334,0,0,1,-6236.711957842112,0) " stroke="#000"/>
 </g>
</svg>