<svg width="472" height="123" viewBox="0 0 472 123" version="1.1" xmlns="http://www.w3.org/2000/svg" xmlns:xlink="http://www.w3.org/1999/xlink">
<title>server-admin-logo-dark</title>
<desc>Created using Figma</desc>
<g id="Canvas" transform="translate(-2505 -38)">
<g id="server-admin-logo-dark">
<g id="Vector">
<use xlink:href="#path0_fill" transform="translate(2505.72 38.4032)" fill="#FFFFFF"/>
</g>
<g id="Server Admin">
<use xlink:href="#path1_fill" transform="translate(2617.39 132.542)" fill="#00AEEF"/>
</g>
</g>
</g>
<defs>
<path id="path0_fill" d="M 224.718 63.1218L 224.718 59.5458L 218.426 59.5458L 218.426 83.5808L 224.913 83.5808L 224.913 72.599C 224.913 67.4207 227.786 65.8184 231.108 65.8184C 231.764 65.8177 232.418 65.8832 233.062 66.0138L 233.062 59.4481C 232.562 59.3901 232.06 59.3575 231.557 59.3504C 230.174 59.2484 228.791 59.5505 227.577 60.2201C 226.363 60.8897 225.369 61.8978 224.718 63.1218L 224.718 63.1218ZM 146.555 58.8228C 144.95 58.8652 143.368 59.2279 141.905 59.8898C 140.441 60.5517 139.125 61.4993 138.033 62.6771C 136.94 63.8548 136.095 65.239 135.545 66.7482C 134.995 68.2574 134.752 69.8613 134.831 71.4656C 134.739 73.1393 134.994 74.8138 135.579 76.3844C 136.165 77.955 137.068 79.3878 138.233 80.593C 139.398 81.7982 140.799 82.7499 142.349 83.3885C 143.898 84.027 145.563 84.3386 147.239 84.3038C 149.652 84.4372 152.04 83.7594 154.023 82.3783C 156.006 80.9972 157.47 78.9924 158.182 76.683L 152.769 75.0806C 152.4 76.2156 151.659 77.1932 150.667 77.856C 149.674 78.5189 148.488 78.8284 147.298 78.7347C 145.775 78.7889 144.291 78.2479 143.16 77.2266C 142.029 76.2053 141.341 74.7838 141.24 73.2634L 158.436 73.2634C 158.436 73.1657 158.534 72.1886 158.534 71.3093C 158.495 63.5517 154.059 58.8228 146.555 58.8228ZM 141.279 68.8276C 141.398 67.501 142.022 66.2708 143.022 65.3908C 144.022 64.5109 145.322 64.0484 146.653 64.0988C 147.323 64.0223 148.002 64.0871 148.645 64.2889C 149.289 64.4908 149.883 64.8253 150.389 65.2708C 150.895 65.7164 151.303 66.2631 151.585 66.8757C 151.867 67.4883 152.017 68.1533 152.027 68.8276L 141.279 68.8276ZM 452.992 63.1218L 452.992 59.5458L 446.699 59.5458L 446.699 83.5808L 453.187 83.5808L 453.187 72.599C 453.187 67.4207 456.059 65.8184 459.381 65.8184C 460.038 65.8177 460.692 65.8832 461.335 66.0138L 461.335 59.4481C 460.836 59.3901 460.334 59.3575 459.831 59.3504C 458.448 59.2484 457.065 59.5505 455.851 60.2201C 454.637 60.8897 453.643 61.8978 452.992 63.1218L 452.992 63.1218ZM 194.899 35.3741L 194.899 20.2301C 194.899 14.9541 192.163 10.7138 186.203 10.7138C 184.834 10.6714 183.477 10.9815 182.262 11.6146C 181.047 12.2476 180.016 13.1823 179.266 14.3288L 179.266 11.3391L 172.955 11.3391L 172.955 35.3741L 179.442 35.3741L 179.442 21.5002C 179.379 20.8715 179.449 20.2366 179.646 19.6363C 179.843 19.036 180.164 18.4836 180.587 18.0144C 181.01 17.5452 181.527 17.1697 182.103 16.9119C 182.68 16.6541 183.305 16.5197 183.936 16.5173C 184.56 16.4797 185.183 16.5808 185.763 16.8133C 186.342 17.0458 186.862 17.4039 187.287 17.8618C 187.711 18.3197 188.028 18.866 188.216 19.4614C 188.404 20.0568 188.457 20.6864 188.372 21.3048L 188.372 35.3741L 194.899 35.3741ZM 139.149 17.3576L 121.856 17.3576L 121.856 23.2198L 132.877 23.2198C 132.486 25.6624 130.004 29.9613 123.595 29.9613C 117.733 29.9613 112.652 25.9164 112.652 18.1001C 112.652 9.89306 118.319 6.37575 123.536 6.37575C 125.606 6.26717 127.652 6.85743 129.346 8.05171C 131.04 9.24599 132.284 10.975 132.877 12.9609L 139.325 10.6747C 137.586 5.34009 132.564 0.00549957 123.478 0.00549957C 121.108 -0.0388012 118.754 0.401144 116.561 1.29838C 114.367 2.19562 112.38 3.53126 110.721 5.22349C 109.061 6.91571 107.765 8.92888 106.911 11.1397C 106.057 13.3505 105.663 15.7123 105.754 18.0806C 105.754 29.2578 113.707 36.0971 123.048 36.0971C 125.002 36.2116 126.955 35.8437 128.734 35.0259C 130.512 34.2081 132.063 32.9654 133.248 31.4073L 133.678 35.3154L 139.149 35.3154L 139.149 17.3576ZM 212.29 59.5654L 205.802 59.5654L 205.802 73.5369C 205.844 74.1476 205.757 74.7602 205.545 75.3346C 205.334 75.909 205.003 76.4321 204.575 76.8695C 204.146 77.3069 203.631 77.6488 203.061 77.8726C 202.491 78.0964 201.88 78.1971 201.269 78.1681C 200.648 78.1902 200.03 78.0769 199.457 77.8361C 198.884 77.5952 198.371 77.2325 197.953 76.7732C 197.534 76.3139 197.221 75.769 197.034 75.1764C 196.848 74.5838 196.793 73.9577 196.872 73.3415L 196.872 59.4677L 190.346 59.4677L 190.346 74.6508C 190.257 75.8881 190.43 77.1302 190.853 78.2965C 191.275 79.4628 191.938 80.5272 192.799 81.4208C 193.659 82.3144 194.698 83.0171 195.847 83.4835C 196.997 83.9499 198.231 84.1694 199.471 84.128C 200.761 84.1995 202.049 83.941 203.211 83.3769C 204.374 82.8127 205.373 81.9616 206.115 80.9038C 206.112 81.7673 206.178 82.6298 206.31 83.4831L 212.505 83.4831C 212.347 82.0425 212.269 80.5943 212.27 79.1451L 212.29 59.5654ZM 174.967 78.3635C 174.105 78.3619 173.253 78.1805 172.465 77.8308C 171.678 77.4811 170.971 76.9708 170.392 76.3326C 169.813 75.6944 169.373 74.9423 169.101 74.1245C 168.829 73.3066 168.73 72.4409 168.812 71.5829C 168.724 70.7304 168.817 69.869 169.084 69.0545C 169.35 68.2401 169.785 67.4908 170.36 66.8551C 170.935 66.2195 171.637 65.7118 172.42 65.3649C 173.204 65.018 174.052 64.8396 174.909 64.8413C 176.127 64.7914 177.324 65.1681 178.295 65.9065C 179.265 66.6449 179.947 67.6987 180.224 68.8863L 186.086 66.9322C 185.425 64.4903 183.944 62.3505 181.89 60.8735C 179.836 59.3964 177.336 58.6722 174.811 58.8228C 173.146 58.8033 171.494 59.1217 169.956 59.7589C 168.418 60.396 167.025 61.3386 165.861 62.5296C 164.697 63.7206 163.788 65.1352 163.186 66.688C 162.585 68.2407 162.305 69.8993 162.364 71.5633C 162.321 73.2397 162.618 74.9074 163.237 76.4659C 163.857 78.0244 164.785 79.4415 165.966 80.6318C 167.147 81.8222 168.557 82.7611 170.111 83.3922C 171.664 84.0233 173.33 84.3334 175.006 84.3038C 177.51 84.4086 179.976 83.6675 182.007 82.1999C 184.038 80.7324 185.516 78.6239 186.203 76.214L 180.497 74.2599C 180.179 75.4703 179.457 76.536 178.452 77.2819C 177.447 78.0277 176.218 78.4092 174.967 78.3635L 174.967 78.3635ZM 212.095 36.1166C 214.507 36.25 216.896 35.5721 218.879 34.1911C 220.862 32.81 222.326 30.8051 223.037 28.4958L 217.625 26.8934C 217.259 28.032 216.52 29.014 215.527 29.6806C 214.534 30.3472 213.345 30.6595 212.153 30.5671C 210.63 30.6212 209.146 30.0803 208.016 29.0589C 206.885 28.0376 206.196 26.6161 206.096 25.0957L 223.291 25.0957C 223.291 24.998 223.291 24.0209 223.291 23.1416C 223.291 15.4231 218.856 10.6942 211.43 10.6942C 209.824 10.7366 208.243 11.0993 206.78 11.7612C 205.316 12.4231 204 13.3707 202.908 14.5485C 201.815 15.7262 200.969 17.1104 200.42 18.6196C 199.87 20.1288 199.627 21.7327 199.706 23.337C 199.622 25.0042 199.883 26.6707 200.471 28.233C 201.059 29.7953 201.962 31.2199 203.124 32.4185C 204.285 33.617 205.681 34.5638 207.225 35.2C 208.768 35.8362 210.426 36.1482 212.095 36.1166ZM 211.606 15.892C 212.27 15.8271 212.94 15.9006 213.574 16.1077C 214.208 16.3149 214.793 16.6513 215.29 17.0956C 215.788 17.54 216.188 18.0827 216.465 18.6894C 216.743 19.2962 216.891 19.9538 216.902 20.6209L 206.154 20.6209C 206.274 19.2801 206.909 18.0381 207.926 17.1561C 208.942 16.2741 210.262 15.8209 211.606 15.892L 211.606 15.892ZM 230.072 28.3003C 229.999 29.3112 230.147 30.3258 230.507 31.2733C 230.867 32.2207 231.43 33.078 232.156 33.7853C 232.881 34.4926 233.753 35.0327 234.71 35.3679C 235.666 35.7031 236.684 35.8252 237.693 35.7258C 238.937 35.7684 240.178 35.5693 241.347 35.1396L 241.347 29.7659C 240.704 29.8987 240.049 29.9642 239.393 29.9613C 237.439 29.9613 236.559 29.2774 236.559 27.1865L 236.559 17.1036L 241.386 17.1036L 241.386 11.3391L 236.442 11.3391L 236.442 4.16766L 230.58 4.16766L 230.58 7.52865C 230.633 8.03368 230.575 8.54423 230.408 9.02404C 230.242 9.50386 229.972 9.94115 229.618 10.3049C 229.263 10.6686 228.833 10.9498 228.358 11.1286C 227.882 11.3073 227.373 11.3792 226.867 11.3391L 225.656 11.3391L 225.656 17.1036L 229.994 17.1036L 230.072 28.3003ZM 121.914 63.4735L 117.068 62.5356C 114.528 62.047 113.317 60.5815 113.317 58.6274C 113.38 57.982 113.571 57.3556 113.878 56.7843C 114.185 56.2131 114.602 55.7085 115.105 55.2996C 115.609 54.8907 116.188 54.5857 116.81 54.4022C 117.432 54.2188 118.085 54.1605 118.729 54.2308C 120.198 54.0907 121.666 54.5098 122.84 55.4045C 124.013 56.2992 124.806 57.6036 125.06 59.0573L 131.118 57.201C 130.336 53.2928 127.21 48.2123 118.71 48.2123C 112.164 48.2123 106.653 52.902 106.653 59.0573C 106.653 64.2747 110.229 67.8506 115.74 68.9644L 120.566 69.9415C 123.243 70.4886 124.767 72.0323 124.767 74.045C 124.767 76.4876 122.813 78.2853 119.159 78.2853C 118.234 78.368 117.302 78.2648 116.418 77.9816C 115.533 77.6983 114.715 77.2409 114.01 76.6363C 113.305 76.0317 112.729 75.2921 112.314 74.4611C 111.9 73.6301 111.656 72.7245 111.597 71.7978L 105.344 73.4588C 105.872 78.383 109.936 84.3038 119.022 84.3038C 127.073 84.3038 131.528 78.9301 131.528 73.6151C 131.587 68.7299 128.207 64.6264 121.914 63.4149L 121.914 63.4735ZM 466.084 75.0416C 465.203 75.0493 464.345 75.3176 463.617 75.8127C 462.889 76.3078 462.324 77.0075 461.994 77.8233C 461.663 78.6392 461.582 79.5348 461.759 80.3969C 461.937 81.2591 462.367 82.0492 462.993 82.6676C 463.62 83.286 464.416 83.7049 465.28 83.8715C 466.144 84.038 467.039 83.9447 467.85 83.6034C 468.662 83.2621 469.354 82.688 469.839 81.9537C 470.325 81.2193 470.582 80.3576 470.578 79.4773C 470.576 78.8906 470.457 78.3101 470.23 77.7693C 470.002 77.2284 469.67 76.7378 469.252 76.3257C 468.835 75.9135 468.34 75.5879 467.796 75.3676C 467.252 75.1472 466.67 75.0364 466.084 75.0416L 466.084 75.0416ZM 156.54 36.1166C 158.953 36.25 161.341 35.5721 163.325 34.1911C 165.308 32.81 166.772 30.8051 167.483 28.4958L 162.07 26.8934C 161.705 28.032 160.966 29.014 159.973 29.6806C 158.98 30.3472 157.791 30.6595 156.599 30.5671C 155.076 30.6212 153.592 30.0803 152.462 29.0589C 151.331 28.0376 150.642 26.6161 150.541 25.0957L 167.737 25.0957C 167.737 24.998 167.835 24.0209 167.835 23.1416C 167.835 15.4231 163.399 10.6942 155.974 10.6942C 154.368 10.7366 152.787 11.0993 151.323 11.7612C 149.86 12.4231 148.543 13.3707 147.451 14.5485C 146.359 15.7262 145.513 17.1104 144.963 18.6196C 144.413 20.1288 144.171 21.7327 144.249 23.337C 144.167 24.9959 144.424 26.6541 145.006 28.2097C 145.588 29.7652 146.483 31.1853 147.634 32.3824C 148.785 33.5795 150.169 34.5283 151.701 35.1705C 153.233 35.8127 154.88 36.1347 156.54 36.1166ZM 156.052 15.892C 156.722 15.8155 157.401 15.8803 158.044 16.0822C 158.688 16.284 159.282 16.6185 159.788 17.0641C 160.294 17.5096 160.702 18.0563 160.984 18.669C 161.266 19.2816 161.416 19.9465 161.426 20.6209L 150.678 20.6209C 150.798 19.2942 151.421 18.064 152.421 17.1841C 153.421 16.3041 154.721 15.8416 156.052 15.892ZM 259.187 52.3744L 253.325 52.3744L 253.325 55.7354C 253.378 56.2404 253.32 56.751 253.153 57.2308C 252.987 57.7106 252.717 58.1479 252.363 58.5116C 252.008 58.8754 251.578 59.1566 251.103 59.3353C 250.628 59.5141 250.119 59.5859 249.613 59.5458L 248.401 59.5458L 248.401 65.3103L 252.739 65.3103L 252.739 76.4876C 252.666 77.4984 252.814 78.513 253.174 79.4605C 253.534 80.4079 254.097 81.2653 254.823 81.9725C 255.549 82.6798 256.42 83.2199 257.377 83.5551C 258.333 83.8903 259.351 84.0125 260.36 83.913C 261.604 83.9556 262.845 83.7565 264.014 83.3268L 264.014 77.9727C 263.371 78.1054 262.716 78.1709 262.06 78.1681C 260.106 78.1681 259.227 77.4841 259.227 75.3933L 259.227 65.3103L 264.053 65.3103L 264.053 59.5458L 259.227 59.5458L 259.187 52.3744ZM 285.079 30.1567C 284.224 30.1542 283.379 29.9748 282.597 29.6299C 281.815 29.2849 281.113 28.7818 280.535 28.1523C 279.956 27.5227 279.515 26.7803 279.238 25.9718C 278.96 25.1633 278.853 24.3061 278.923 23.4543C 278.836 22.6001 278.929 21.7371 279.197 20.9213C 279.464 20.1055 279.901 19.3552 280.478 18.7192C 281.055 18.0833 281.759 17.576 282.545 17.2303C 283.331 16.8846 284.181 16.7082 285.04 16.7127C 286.258 16.6628 287.455 17.0395 288.426 17.7779C 289.396 18.5163 290.078 19.5701 290.355 20.7577L 296.217 18.8036C 295.556 16.3617 294.075 14.2219 292.021 12.7449C 289.967 11.2678 287.467 10.5436 284.942 10.6942C 283.269 10.6639 281.607 10.975 280.058 11.6085C 278.509 12.2421 277.106 13.1848 275.934 14.379C 274.761 15.5732 273.845 16.9939 273.24 18.5543C 272.635 20.1147 272.355 21.7819 272.416 23.4543C 272.374 25.1307 272.671 26.7984 273.29 28.3568C 273.909 29.9153 274.838 31.3324 276.019 32.5228C 277.2 33.7131 278.61 34.6521 280.164 35.2832C 281.717 35.9142 283.383 36.2243 285.059 36.1948C 287.572 36.3074 290.049 35.5677 292.089 34.0956C 294.128 32.6236 295.61 30.5057 296.295 28.0854L 290.589 26.1313C 290.256 27.3238 289.532 28.3694 288.532 29.0997C 287.532 29.8299 286.316 30.2023 285.079 30.1567L 285.079 30.1567ZM 280.624 73.6346L 274.234 59.5654L 266.965 59.5654L 277.165 80.5716L 271.498 93.0776L 278.376 93.0776L 293.462 59.5654L 286.525 59.5654L 280.624 73.6346ZM 325.665 77.7382C 324.191 77.7498 322.732 77.4567 321.377 76.8773C 320.022 76.2979 318.802 75.4447 317.793 74.3713C 316.784 73.2979 316.007 72.0274 315.512 70.6396C 315.018 69.2518 314.815 67.7767 314.917 66.3069C 314.917 58.4906 320.389 54.7388 325.567 54.7388C 327.725 54.5706 329.873 55.182 331.619 56.4621C 333.365 57.7421 334.594 59.6058 335.083 61.7148L 341.434 59.7608C 340.066 54.1526 335.142 48.2904 325.567 48.2904C 323.216 48.2895 320.888 48.7601 318.722 49.6743C 316.556 50.5885 314.595 51.9278 312.955 53.6129C 311.316 55.2981 310.031 57.2949 309.176 59.4853C 308.322 61.6757 307.915 64.0152 307.98 66.3655C 307.881 68.7333 308.268 71.0963 309.12 73.3079C 309.971 75.5195 311.268 77.5325 312.93 79.2219C 314.592 80.9113 316.584 82.2411 318.781 83.1288C 320.978 84.0164 323.335 84.443 325.704 84.382C 329.315 84.5637 332.878 83.4976 335.796 81.3627C 338.713 79.2278 340.808 76.1541 341.727 72.6576L 335.435 70.7035C 334.844 72.8078 333.555 74.6484 331.779 75.9232C 330.004 77.198 327.848 77.8311 325.665 77.7186L 325.665 77.7382ZM 386.241 58.9401C 384.873 58.8956 383.517 59.2028 382.303 59.8323C 381.088 60.4619 380.056 61.3926 379.304 62.5356L 379.304 59.5458L 373.012 59.5458L 373.012 83.5808L 379.499 83.5808L 379.499 69.7656C 379.437 69.1369 379.506 68.502 379.703 67.9017C 379.9 67.3014 380.221 66.749 380.644 66.2798C 381.067 65.8106 381.584 65.4351 382.16 65.1772C 382.737 64.9194 383.362 64.7851 383.993 64.7827C 384.618 64.7421 385.244 64.8409 385.826 65.0721C 386.408 65.3032 386.931 65.6609 387.357 66.1192C 387.784 66.5775 388.103 67.1249 388.292 67.7217C 388.48 68.3186 388.534 68.95 388.449 69.5702L 388.449 83.5808L 394.936 83.5808L 394.936 68.3977C 394.936 63.1609 392.201 58.9205 386.241 58.9205L 386.241 58.9401ZM 355.992 58.8424C 354.386 58.8847 352.805 59.2475 351.341 59.9093C 349.878 60.5712 348.561 61.5188 347.469 62.6966C 346.377 63.8744 345.531 65.2585 344.981 66.7677C 344.431 68.277 344.189 69.8808 344.267 71.4852C 344.176 73.1588 344.43 74.8334 345.016 76.404C 345.601 77.9746 346.505 79.4073 347.669 80.6126C 348.834 81.8178 350.235 82.7695 351.785 83.408C 353.335 84.0465 355 84.3582 356.676 84.3234C 359.089 84.4567 361.477 83.7789 363.46 82.3978C 365.443 81.0168 366.907 79.0119 367.618 76.7025L 362.206 75.1002C 361.836 76.2351 361.096 77.2127 360.103 77.8756C 359.111 78.5384 357.924 78.848 356.734 78.7543C 355.212 78.8084 353.728 78.2675 352.597 77.2461C 351.466 76.2248 350.777 74.8033 350.677 73.2829L 367.872 73.2829C 367.872 73.1852 367.872 72.2082 367.872 71.3288C 367.872 63.5517 363.456 58.8228 356.011 58.8228L 355.992 58.8424ZM 350.716 68.8472C 350.835 67.5205 351.459 66.2903 352.459 65.4104C 353.459 64.5304 354.758 64.0679 356.089 64.1183C 356.761 64.0361 357.442 64.0959 358.089 64.2939C 358.736 64.4919 359.334 64.8237 359.844 65.2678C 360.355 65.7118 360.766 66.2582 361.052 66.8715C 361.337 67.4848 361.491 68.1512 361.502 68.8276L 350.716 68.8472ZM 237.712 83.6004L 244.258 83.6004L 244.258 59.5458L 237.771 59.5458L 237.712 83.6004ZM 262.822 26.9325C 262.456 28.0711 261.717 29.053 260.724 29.7197C 259.732 30.3863 258.543 30.6986 257.351 30.6061C 255.828 30.6603 254.344 30.1193 253.213 29.098C 252.082 28.0767 251.394 26.6552 251.293 25.1348L 268.489 25.1348C 268.489 25.0371 268.489 24.06 268.489 23.1807C 268.489 15.4621 264.053 10.7333 256.628 10.7333C 255.022 10.7756 253.441 11.1384 251.977 11.8003C 250.514 12.4621 249.197 13.4098 248.105 14.5876C 247.013 15.7653 246.167 17.1495 245.617 18.6587C 245.067 20.1679 244.825 21.7718 244.903 23.3761C 244.811 25.0497 245.066 26.7243 245.652 28.2949C 246.237 29.8655 247.14 31.2983 248.305 32.5035C 249.47 33.7087 250.871 34.6604 252.421 35.2989C 253.971 35.9375 255.636 36.2491 257.312 36.2143C 259.724 36.3477 262.113 35.6698 264.096 34.2888C 266.079 32.9077 267.543 30.9029 268.254 28.5935L 262.822 26.9325ZM 256.823 15.9507C 257.493 15.8741 258.172 15.9389 258.815 16.1408C 259.459 16.3426 260.053 16.6771 260.559 17.1227C 261.065 17.5682 261.473 18.1149 261.755 18.7276C 262.037 19.3402 262.187 20.0051 262.197 20.6795L 251.449 20.6795C 251.554 19.3388 252.175 18.0911 253.181 17.1983C 254.186 16.3056 255.499 15.8374 256.843 15.892L 256.823 15.9507ZM 429.66 58.9401C 428.054 58.9824 426.473 59.3452 425.01 60.007C 423.546 60.6689 422.23 61.6165 421.137 62.7943C 420.045 63.9721 419.199 65.3562 418.649 66.8654C 418.1 68.3747 417.857 69.9785 417.936 71.5829C 417.844 73.2565 418.099 74.9311 418.684 76.5017C 419.269 78.0723 420.173 79.505 421.338 80.7103C 422.502 81.9155 423.904 82.8672 425.453 83.5057C 427.003 84.1442 428.668 84.4559 430.344 84.4211C 432.757 84.5544 435.145 83.8766 437.128 82.4955C 439.111 81.1145 440.575 79.1096 441.287 76.8002L 435.757 75.0806C 435.387 76.2156 434.647 77.1932 433.654 77.856C 432.662 78.5189 431.475 78.8284 430.285 78.7347C 428.763 78.7889 427.279 78.2479 426.148 77.2266C 425.017 76.2053 424.328 74.7838 424.228 73.2634L 441.423 73.2634C 441.423 73.1657 441.423 72.1886 441.423 71.3093C 441.619 63.5517 437.105 58.8228 429.68 58.8228L 429.66 58.9401ZM 424.384 68.9449C 424.503 67.6182 425.127 66.388 426.127 65.5081C 427.127 64.6281 428.427 64.1656 429.758 64.216C 430.428 64.1395 431.106 64.2043 431.75 64.4062C 432.393 64.608 432.988 64.9425 433.494 65.3881C 434 65.8336 434.407 66.3803 434.689 66.993C 434.972 67.6056 435.122 68.2705 435.131 68.9449L 424.384 68.9449ZM 409.533 52.4917L 403.671 52.4917L 403.671 55.8527C 403.724 56.3577 403.666 56.8682 403.499 57.3481C 403.333 57.8279 403.063 58.2652 402.709 58.6289C 402.354 58.9926 401.924 59.2738 401.449 59.4526C 400.973 59.6313 400.464 59.7032 399.958 59.6631L 398.747 59.6631L 398.747 65.4276L 403.085 65.4276L 403.085 76.6048C 403.011 77.6157 403.16 78.6303 403.52 79.5777C 403.88 80.5252 404.442 81.3825 405.168 82.0898C 405.894 82.7971 406.766 83.3372 407.722 83.6724C 408.679 84.0076 409.697 84.1297 410.706 84.0303C 411.95 84.0728 413.191 83.8738 414.36 83.444L 414.36 77.9727C 413.717 78.1054 413.062 78.1709 412.406 78.1681C 410.452 78.1681 409.572 77.4841 409.572 75.3933L 409.572 65.3103L 414.399 65.3103L 414.399 59.5458L 409.572 59.5458L 409.533 52.4917ZM 240.937 47.7628C 239.874 47.7628 238.855 48.1849 238.104 48.9361C 237.353 49.6873 236.931 50.7062 236.931 51.7687C 236.931 52.8311 237.353 53.85 238.104 54.6012C 238.855 55.3524 239.874 55.7745 240.937 55.7745C 241.999 55.7745 243.018 55.3524 243.769 54.6012C 244.52 53.85 244.942 52.8311 244.942 51.7687C 244.942 50.7062 244.52 49.6873 243.769 48.9361C 243.018 48.1849 241.999 47.7628 240.937 47.7628ZM 77.7526 13.8207L 78.163 13.8207L 78.163 10.5965L 79.3549 10.5965L 79.3549 10.1276L 76.5606 10.1276L 76.5606 10.5965L 77.7526 10.5965L 77.7526 13.8207ZM 59.8534 8.52522L 47.8945 1.60783C 46.0742 0.55459 44.0083 -8.47942e-11 41.9053 -8.4795e-11C 39.8022 -8.47933e-11 37.7364 0.55459 35.9161 1.60783L 5.97983 18.8818C 4.1517 19.9395 2.63574 21.4618 1.58564 23.2943C 0.535545 25.1268 -0.0113526 27.2044 0.000396162 29.3165L 0.000396162 29.3165L 0.000396162 63.8057C -0.0168233 65.9214 0.527581 68.0039 1.57805 69.8405C 2.62852 71.6771 4.14745 73.2021 5.97983 74.2599L 17.9582 81.1773L 17.9582 39.6144C 17.9685 37.5251 18.526 35.475 19.5751 33.6683C 20.6242 31.8615 22.1283 30.3611 23.9377 29.3165L 59.8534 8.52522ZM 59.8534 15.4426L 29.9367 32.7165C 28.1265 33.757 26.6203 35.2533 25.5678 37.0565C 24.5154 38.8597 23.9534 40.9071 23.9377 42.9949L 23.9377 74.2599C 23.9262 74.614 24.0113 74.9646 24.1837 75.2741C 24.3561 75.5836 24.6094 75.8403 24.9165 76.017C 25.2236 76.1936 25.5729 76.2834 25.9271 76.2768C 26.2813 76.2702 26.6271 76.1675 26.9274 75.9795L 38.8863 69.0621C 39.7952 68.5373 40.5501 67.7825 41.0749 66.8735C 41.5997 65.9646 41.876 64.9335 41.876 63.8839L 41.876 53.5273C 41.8488 51.3945 42.3924 49.2933 43.4507 47.4414C 44.5089 45.5894 46.0432 44.0542 47.8945 42.9949L 83.7907 22.3405L 71.8122 15.4231C 69.9926 14.3764 67.9294 13.8272 65.8302 13.8306C 63.731 13.8341 61.6696 14.39 59.8534 15.4426L 59.8534 15.4426ZM 82.3642 30.8015C 82.1015 30.721 81.8247 30.6968 81.552 30.7304C 81.2792 30.7641 81.0167 30.8549 80.7814 30.997L 68.8225 37.8948C 67.9249 38.4129 67.1774 39.1554 66.6533 40.0495C 66.1292 40.9436 65.8464 41.9586 65.8328 42.9949L 65.8328 53.3514C 65.8362 55.454 65.2853 57.5202 64.2355 59.3419C 63.1857 61.1636 61.6742 62.6763 59.8534 63.7275L 23.9377 84.5383L 35.9161 91.4557C 37.7364 92.5089 39.8022 93.0635 41.9053 93.0635C 44.0083 93.0635 46.0742 92.5089 47.8945 91.4557L 77.8112 74.2599C 79.6292 73.2103 81.1388 71.7007 82.1884 69.8827C 83.238 68.0648 83.7906 66.0026 83.7907 63.9034L 83.7907 32.7165C 83.798 32.2845 83.6621 31.8623 83.404 31.5158C 83.1459 31.1693 82.7802 30.9181 82.3642 30.8015L 82.3642 30.8015ZM 81.8757 12.9219L 80.7032 10.1276L 79.9607 10.1276L 79.9607 13.8207L 80.4688 13.8207L 80.4688 10.7919L 81.7194 13.8403L 82.0711 13.8403L 83.3217 10.7919L 83.3217 13.8207L 83.8297 13.8207L 83.8297 10.1276L 83.0481 10.1276L 81.8757 12.9219ZM 302.685 6.96197L 301.512 4.16766L 300.77 4.16766L 300.77 7.82176L 301.278 7.82176L 301.278 4.8125L 302.45 7.82176L 302.88 7.82176L 304.131 4.77342L 304.131 7.82176L 304.639 7.82176L 304.639 4.16766L 303.896 4.16766L 302.685 6.96197ZM 297.37 4.63663L 298.562 4.63663L 298.562 7.82176L 298.972 7.82176L 298.972 4.63663L 300.164 4.63663L 300.164 4.16766L 297.272 4.16766L 297.37 4.63663Z"/>
<path id="path1_fill" d="M 197.696 13.748C 197.64 13.4493 197.528 13.1227 197.36 12.768C 197.21 12.3947 196.977 12.0587 196.66 11.76C 196.361 11.4613 195.978 11.2093 195.512 11.004C 195.045 10.7987 194.476 10.696 193.804 10.696C 193.3 10.696 192.833 10.78 192.404 10.948C 191.993 11.0973 191.638 11.3027 191.34 11.564C 191.041 11.8253 190.808 12.1333 190.64 12.488C 190.472 12.824 190.388 13.1787 190.388 13.552C 190.388 14.1867 190.574 14.728 190.948 15.176C 191.34 15.624 191.928 15.932 192.712 16.1L 195.568 16.688C 197.322 17.0427 198.657 17.7333 199.572 18.76C 200.486 19.7867 200.944 21 200.944 22.4C 200.944 23.1653 200.785 23.912 200.468 24.64C 200.169 25.368 199.721 26.012 199.124 26.572C 198.526 27.132 197.789 27.58 196.912 27.916C 196.053 28.252 195.054 28.42 193.916 28.42C 192.646 28.42 191.545 28.2427 190.612 27.888C 189.697 27.5147 188.922 27.0387 188.288 26.46C 187.672 25.8627 187.196 25.2 186.86 24.472C 186.524 23.744 186.318 23.0253 186.244 22.316L 189.38 21.42C 189.436 21.9427 189.566 22.4467 189.772 22.932C 189.977 23.3987 190.266 23.8187 190.64 24.192C 191.032 24.5467 191.498 24.836 192.04 25.06C 192.581 25.284 193.206 25.396 193.916 25.396C 195.11 25.396 196.006 25.1347 196.604 24.612C 197.22 24.0893 197.528 23.436 197.528 22.652C 197.528 21.9987 197.294 21.4387 196.828 20.972C 196.38 20.4867 195.726 20.1507 194.868 19.964L 192.068 19.376C 190.556 19.0587 189.333 18.424 188.4 17.472C 187.485 16.52 187.028 15.2973 187.028 13.804C 187.028 12.964 187.205 12.18 187.56 11.452C 187.914 10.7053 188.4 10.0613 189.016 9.52C 189.632 8.96 190.341 8.52133 191.144 8.204C 191.965 7.88667 192.842 7.728 193.776 7.728C 194.952 7.728 195.95 7.88667 196.772 8.204C 197.593 8.52133 198.274 8.932 198.816 9.436C 199.376 9.92133 199.805 10.4627 200.104 11.06C 200.402 11.6573 200.608 12.236 200.72 12.796L 197.696 13.748ZM 212.922 19.684C 212.903 19.292 212.819 18.9187 212.67 18.564C 212.539 18.1907 212.334 17.864 212.054 17.584C 211.774 17.304 211.429 17.08 211.018 16.912C 210.607 16.744 210.122 16.66 209.562 16.66C 209.058 16.66 208.601 16.7533 208.19 16.94C 207.798 17.108 207.462 17.3413 207.182 17.64C 206.902 17.92 206.678 18.2467 206.51 18.62C 206.342 18.9747 206.249 19.3293 206.23 19.684L 212.922 19.684ZM 216.03 24.108C 215.843 24.7053 215.573 25.2653 215.218 25.788C 214.863 26.3107 214.425 26.768 213.902 27.16C 213.379 27.552 212.782 27.86 212.11 28.084C 211.438 28.308 210.691 28.42 209.87 28.42C 208.937 28.42 208.05 28.2613 207.21 27.944C 206.37 27.608 205.633 27.132 204.998 26.516C 204.363 25.8813 203.85 25.116 203.458 24.22C 203.085 23.3053 202.898 22.2693 202.898 21.112C 202.898 20.0293 203.075 19.0493 203.43 18.172C 203.803 17.2947 204.298 16.548 204.914 15.932C 205.53 15.2973 206.239 14.812 207.042 14.476C 207.845 14.1213 208.675 13.944 209.534 13.944C 210.579 13.944 211.513 14.112 212.334 14.448C 213.174 14.784 213.874 15.26 214.434 15.876C 215.013 16.492 215.451 17.2387 215.75 18.116C 216.049 18.9747 216.198 19.9453 216.198 21.028C 216.198 21.2893 216.189 21.5227 216.17 21.728C 216.151 21.9147 216.133 22.0267 216.114 22.064L 206.146 22.064C 206.165 22.5867 206.277 23.0627 206.482 23.492C 206.687 23.9213 206.958 24.2947 207.294 24.612C 207.63 24.9293 208.013 25.1813 208.442 25.368C 208.89 25.536 209.366 25.62 209.87 25.62C 210.859 25.62 211.615 25.396 212.138 24.948C 212.679 24.4813 213.062 23.912 213.286 23.24L 216.03 24.108ZM 227.282 17.584C 226.908 17.528 226.554 17.5 226.218 17.5C 224.948 17.5 224.015 17.8453 223.418 18.536C 222.839 19.2267 222.55 20.216 222.55 21.504L 222.55 28L 219.302 28L 219.302 14.364L 222.466 14.364L 222.466 16.548C 222.783 15.8013 223.296 15.2227 224.006 14.812C 224.715 14.4013 225.518 14.196 226.414 14.196C 226.619 14.196 226.796 14.2053 226.946 14.224C 227.095 14.2427 227.207 14.2613 227.282 14.28L 227.282 17.584ZM 237.375 28L 234.127 28L 228.583 14.364L 232.167 14.364L 235.779 24.108L 239.307 14.364L 242.723 14.364L 237.375 28ZM 253.664 19.684C 253.645 19.292 253.561 18.9187 253.412 18.564C 253.281 18.1907 253.076 17.864 252.796 17.584C 252.516 17.304 252.171 17.08 251.76 16.912C 251.349 16.744 250.864 16.66 250.304 16.66C 249.8 16.66 249.343 16.7533 248.932 16.94C 248.54 17.108 248.204 17.3413 247.924 17.64C 247.644 17.92 247.42 18.2467 247.252 18.62C 247.084 18.9747 246.991 19.3293 246.972 19.684L 253.664 19.684ZM 256.772 24.108C 256.585 24.7053 256.315 25.2653 255.96 25.788C 255.605 26.3107 255.167 26.768 254.644 27.16C 254.121 27.552 253.524 27.86 252.852 28.084C 252.18 28.308 251.433 28.42 250.612 28.42C 249.679 28.42 248.792 28.2613 247.952 27.944C 247.112 27.608 246.375 27.132 245.74 26.516C 245.105 25.8813 244.592 25.116 244.2 24.22C 243.827 23.3053 243.64 22.2693 243.64 21.112C 243.64 20.0293 243.817 19.0493 244.172 18.172C 244.545 17.2947 245.04 16.548 245.656 15.932C 246.272 15.2973 246.981 14.812 247.784 14.476C 248.587 14.1213 249.417 13.944 250.276 13.944C 251.321 13.944 252.255 14.112 253.076 14.448C 253.916 14.784 254.616 15.26 255.176 15.876C 255.755 16.492 256.193 17.2387 256.492 18.116C 256.791 18.9747 256.94 19.9453 256.94 21.028C 256.94 21.2893 256.931 21.5227 256.912 21.728C 256.893 21.9147 256.875 22.0267 256.856 22.064L 246.888 22.064C 246.907 22.5867 247.019 23.0627 247.224 23.492C 247.429 23.9213 247.7 24.2947 248.036 24.612C 248.372 24.9293 248.755 25.1813 249.184 25.368C 249.632 25.536 250.108 25.62 250.612 25.62C 251.601 25.62 252.357 25.396 252.88 24.948C 253.421 24.4813 253.804 23.912 254.028 23.24L 256.772 24.108ZM 268.024 17.584C 267.651 17.528 267.296 17.5 266.96 17.5C 265.691 17.5 264.757 17.8453 264.16 18.536C 263.581 19.2267 263.292 20.216 263.292 21.504L 263.292 28L 260.044 28L 260.044 14.364L 263.208 14.364L 263.208 16.548C 263.525 15.8013 264.039 15.2227 264.748 14.812C 265.457 14.4013 266.26 14.196 267.156 14.196C 267.361 14.196 267.539 14.2053 267.688 14.224C 267.837 14.2427 267.949 14.2613 268.024 14.28L 268.024 17.584ZM 289.61 23.016L 281.21 23.016L 279.362 28L 275.806 28L 283.534 8.148L 287.426 8.148L 295.154 28L 291.486 28L 289.61 23.016ZM 282.386 19.908L 288.434 19.908L 285.41 11.788L 282.386 19.908ZM 299.443 21.14C 299.443 22.4467 299.769 23.5013 300.423 24.304C 301.095 25.088 301.991 25.48 303.111 25.48C 303.633 25.48 304.119 25.3773 304.567 25.172C 305.015 24.948 305.397 24.6493 305.715 24.276C 306.032 23.884 306.275 23.4267 306.443 22.904C 306.629 22.3627 306.723 21.7653 306.723 21.112C 306.723 19.8053 306.387 18.7787 305.715 18.032C 305.061 17.2667 304.203 16.884 303.139 16.884C 302.075 16.884 301.188 17.2667 300.479 18.032C 299.788 18.7973 299.443 19.8333 299.443 21.14ZM 309.859 25.508C 309.859 26.124 309.877 26.6653 309.915 27.132C 309.952 27.5987 309.98 27.888 309.999 28L 306.891 28C 306.853 27.8507 306.816 27.5893 306.779 27.216C 306.76 26.8427 306.751 26.516 306.751 26.236C 306.433 26.8147 305.929 27.3093 305.239 27.72C 304.548 28.1307 303.717 28.336 302.747 28.336C 301.757 28.336 300.861 28.1587 300.059 27.804C 299.256 27.4307 298.565 26.9267 297.987 26.292C 297.427 25.6387 296.988 24.8733 296.671 23.996C 296.353 23.1187 296.195 22.1667 296.195 21.14C 296.195 20.1693 296.353 19.2547 296.671 18.396C 296.988 17.5187 297.427 16.7533 297.987 16.1C 298.565 15.4467 299.256 14.9333 300.059 14.56C 300.861 14.1867 301.739 14 302.691 14C 303.288 14 303.811 14.0653 304.259 14.196C 304.707 14.308 305.089 14.4667 305.407 14.672C 305.743 14.8587 306.013 15.064 306.219 15.288C 306.424 15.512 306.583 15.736 306.695 15.96L 306.695 7.728L 309.859 7.728L 309.859 25.508ZM 314.102 28L 314.102 14.364L 317.21 14.364L 317.21 16.1C 317.602 15.4093 318.181 14.8867 318.946 14.532C 319.712 14.1587 320.477 13.972 321.242 13.972C 322.138 13.972 322.95 14.1773 323.678 14.588C 324.406 14.98 324.957 15.5773 325.33 16.38C 325.872 15.484 326.516 14.8587 327.262 14.504C 328.028 14.1493 328.858 13.972 329.754 13.972C 330.37 13.972 330.968 14.0747 331.546 14.28C 332.125 14.4853 332.638 14.8027 333.086 15.232C 333.534 15.6427 333.889 16.1747 334.15 16.828C 334.43 17.4813 334.57 18.256 334.57 19.152L 334.57 28L 331.434 28L 331.434 19.684C 331.434 18.8813 331.22 18.2187 330.79 17.696C 330.38 17.1547 329.717 16.884 328.802 16.884C 327.944 16.884 327.253 17.1827 326.73 17.78C 326.226 18.3587 325.974 19.068 325.974 19.908L 325.974 28L 322.782 28L 322.782 19.684C 322.782 18.9 322.577 18.2373 322.166 17.696C 321.756 17.1547 321.084 16.884 320.15 16.884C 319.273 16.884 318.582 17.1733 318.078 17.752C 317.574 18.312 317.322 19.0307 317.322 19.908L 317.322 28L 314.102 28ZM 338.548 28L 338.548 14.364L 341.768 14.364L 341.768 28L 338.548 28ZM 338.044 9.576C 338.044 8.97867 338.249 8.47467 338.66 8.064C 339.07 7.65333 339.565 7.448 340.144 7.448C 340.741 7.448 341.245 7.65333 341.656 8.064C 342.066 8.47467 342.272 8.97867 342.272 9.576C 342.272 10.1733 342.066 10.6773 341.656 11.088C 341.245 11.48 340.741 11.676 340.144 11.676C 339.565 11.676 339.07 11.48 338.66 11.088C 338.249 10.6773 338.044 10.1733 338.044 9.576ZM 349.206 28L 345.958 28L 345.958 14.364L 349.122 14.364L 349.122 16.184C 349.57 15.4 350.158 14.84 350.886 14.504C 351.633 14.1493 352.389 13.972 353.154 13.972C 353.994 13.972 354.722 14.112 355.338 14.392C 355.954 14.672 356.458 15.064 356.85 15.568C 357.261 16.0533 357.569 16.6227 357.774 17.276C 357.979 17.9293 358.082 18.6293 358.082 19.376L 358.082 28L 354.834 28L 354.834 19.936C 354.834 19.096 354.619 18.3867 354.19 17.808C 353.779 17.2107 353.061 16.912 352.034 16.912C 351.101 16.912 350.391 17.2293 349.906 17.864C 349.439 18.48 349.206 19.236 349.206 20.132L 349.206 28Z"/>
</defs>
</svg>
